<?xml version="1.0" ?><svg viewBox="0 0 60 60" xmlns="http://www.w3.org/2000/svg"><defs><style>.a{fill:#1c4db8;}.b{fill:none;stroke:#1c4db8;stroke-linecap:round;stroke-linejoin:round;stroke-width:1.5px;}.c{fill:#e82e5f;}</style></defs><title/><path class="a" d="M25.015,36.488a1.092,1.092,0,0,1-.978-1.58,6.452,6.452,0,0,1,11.548,0,1.091,1.091,0,0,1-.978,1.58Z"/><circle class="a" cx="29.811" cy="27.505" r="3.83"/><path class="b" d="M35.154,52.929a6.224,6.224,0,0,1-3.48,4.014A7.709,7.709,0,0,0,29.137,58.5"/><path class="b" d="M37.147,51.232H21.841a1.419,1.419,0,0,1-.748-.212M20.418,36.7V18.919A1.423,1.423,0,0,1,21.841,17.5H38.159a1.423,1.423,0,0,1,1.423,1.423v15.8"/><path class="b" d="M39.341,48.469l-.087.014a2.506,2.506,0,0,0-2.125,2.477A2.025,2.025,0,0,0,38.8,52.953a13.665,13.665,0,0,0,4.382.119,2.443,2.443,0,0,0,2.1-2.418A2.654,2.654,0,0,0,43.851,48.3"/><path class="b" d="M14.244,57.075c.638-6.546-2.169-6.642-.087-13.346l2.9-7.1a1.437,1.437,0,0,1,1.676-.886A3.726,3.726,0,0,1,21.091,37.6a4.081,4.081,0,0,1,.326,3.079l-1.292,6.2.93,3.617s.463,3.206-1.719,4.3"/><path class="b" d="M39.341,43.9l-.087.014a2.506,2.506,0,0,0-2.125,2.477A2.023,2.023,0,0,0,38.8,48.38a13.637,13.637,0,0,0,4.382.12,2.444,2.444,0,0,0,2.1-2.419,2.658,2.658,0,0,0-.927-2.016,2.608,2.608,0,0,0-.5-.336"/><path class="b" d="M39.341,39.325l-.087.013a2.506,2.506,0,0,0-2.125,2.477A2.025,2.025,0,0,0,38.8,43.808a13.665,13.665,0,0,0,4.382.119,2.443,2.443,0,0,0,2.1-2.418,2.654,2.654,0,0,0-1.423-2.353"/><path class="b" d="M37.129,37.243A2.025,2.025,0,0,0,38.8,39.236a13.665,13.665,0,0,0,4.382.119,2.444,2.444,0,0,0,2.1-2.419,2.658,2.658,0,0,0-3.061-2.626l-2.959.456A2.506,2.506,0,0,0,37.129,37.243Z"/><path class="c" d="M30.816,1.965l1.562,3.787,3.155.051a.774.774,0,0,1,.524,1.36l-2.778,2.4,1.462,3.516a.827.827,0,0,1-1.193,1.016l-3.635-2.124-3.7,2.007a.826.826,0,0,1-1.16-1.053l1.572-3.467-2.7-2.484a.773.773,0,0,1,.563-1.343l3.155.05,1.684-3.735A.837.837,0,0,1,30.816,1.965Z"/><path class="c" d="M46.481,7.409l-.266,3.38,2.31,1.219a.641.641,0,0,1-.123,1.2l-2.947.729-.238,3.142a.685.685,0,0,1-1.262.3l-1.887-2.93-3.483.1a.685.685,0,0,1-.462-1.213l2.459-1.97L39.52,8.523a.641.641,0,0,1,.919-.781l2.31,1.219,2.642-2.127A.694.694,0,0,1,46.481,7.409Z"/><path class="c" d="M13.519,7.409l.266,3.38-2.31,1.219a.641.641,0,0,0,.123,1.2l2.947.729.238,3.142a.685.685,0,0,0,1.262.3l1.887-2.93,3.483.1a.685.685,0,0,0,.462-1.213l-2.459-1.97L20.48,8.523a.641.641,0,0,0-.919-.781l-2.31,1.219L14.609,6.834A.694.694,0,0,0,13.519,7.409Z"/></svg>